#!OML:ASF E:\motion texture\Top Level 1\Subject 1\Session 1\male.ASF
:FULLY-SPECIFIED
:DEGREES
220
root 37.7 17.6567 5.72841 129.81 -78.7951 -123.965
lowerback 0.235731 4.63486 7.6039
upperback 0.11172 6.07699 3.62233
thorax 0.381295 2.99477 -0.465752
lowerneck -20.6243 -7.30755 -9.28456
upperneck 9.9373 -8.61575 8.58218
head 7.16723 -3.76713 3.23223
rclavicle 4.91992e-015 9.14409e-015
rhumerus 4.0092 18.1396 -77.9209
rradius 80.7627
rwrist -11.1303
rhand -12.334 -10.2657
rfingers 7.12502
rthumb 13.7352 -39.7923
lclavicle 4.91992e-015 9.14409e-015
lhumerus -76.2306 -13.648 88.3363
lradius 68.0534
lwrist 6.86263
lhand -7.8463 4.57995
lfingers 7.12502
lthumb 18.0567 33.7618
rfemur 5.35448 4.2897 33.9338
rtibia 17.823
rfoot -14.2852 -7.21415
rtoes -1.79879
lfemur -77.2637 9.70328 -13.5799
ltibia 89.151
lfoot 156.954 -97.7882
ltoes -4.67731
221
root 37.5943 17.6433 5.73068 129.974 -78.7108 -123.905
lowerback -0.085901 4.68141 7.63018
upperback 0.0203876 6.11044 3.60985
thorax 0.472979 3.01218 -0.467896
lowerneck -20.5264 -7.33636 -9.34999
upperneck 9.91899 -8.65319 8.63666
head 7.1546 -3.78549 3.2574
rclavicle 2.37051e-014 1.19271e-015
rhumerus 3.46027 18.1473 -78.0847
rradius 80.4459
rwrist -11.0846
rhand -12.2881 -10.2977
rfingers 7.12502
rthumb 13.7793 -39.8214
lclavicle 2.37051e-014 1.19271e-015
lhumerus -75.6473 -13.422 88.3282
lradius 67.7684
lwrist 6.82165
lhand -7.91289 4.63701
lfingers 7.12502
lthumb 17.9927 33.8247
rfemur 5.47477 4.34551 33.9401
rtibia 17.8442
rfoot -14.3138 -7.0768
rtoes -2.38756
lfemur -75.6305 9.87948 -13.2498
ltibia 88.4607
lfoot 179.903 -118.352
ltoes -4.68266
222
root 37.4854 17.628 5.73344 130.167 -78.6258 -123.861
lowerback -0.435415 4.73023 7.64252
upperback -0.0831734 6.14424 3.60548
thorax 0.565288 3.0293 -0.45211
lowerneck -20.392 -7.35979 -9.4219
upperneck 9.90421 -8.68387 8.68368
head 7.13651 -3.8024 3.28283
rclavicle 4.91992e-015 1.19271e-014
rhumerus 2.83291 18.1817 -78.2528
rradius 80.1084
rwrist -11.0368
rhand -12.2422 -10.3251
rfingers 7.12502
rthumb 13.8236 -39.8458
lclavicle 4.91992e-015 1.19271e-014
lhumerus -75.0058 -13.182 88.3346
lradius 67.4333
lwrist 6.82385
lhand -8.00597 4.7185
lfingers 7.12502
lthumb 17.9031 33.9145
rfemur 5.60912 4.40154 33.9423
rtibia 17.8394
rfoot -14.3517 -6.93596
rtoes -2.93398
lfemur -73.928 10.0585 -12.923
ltibia 86.1008
lfoot 184.345 -139.43
ltoes -4.70063
223
root 37.3734 17.6106 5.73669 130.367 -78.5484 -123.816
lowerback -0.74843 4.77493 7.63579
upperback -0.243785 6.18063 3.60279
thorax 0.57597 3.04422 -0.430549
lowerneck -20.1929 -7.37213 -9.4876
upperneck 9.92535 -8.70659 8.71312
head 7.11783 -3.81801 3.30386
rclavicle 2.72335e-014 -2.38542e-014
rhumerus 2.05415 18.2499 -78.4617
rradius 79.7545
rwrist -10.974
rhand -12.209 -10.3694
rfingers 7.12502
rthumb 13.8556 -39.8879
lclavicle 2.72335e-014 -2.38542e-014
lhumerus -74.3799 -12.9352 88.3624
lradius 67.053
lwrist 6.88157
lhand -8.15862 4.82019
lfingers 7.12502
lthumb 17.7562 34.0295
rfemur 5.76387 4.44458 33.9329
rtibia 17.8026
rfoot -14.3955 -6.78683
rtoes -3.47555
lfemur -72.1585 10.2293 -12.6057
ltibia 82.7275
lfoot 186.79 -160.442
ltoes -4.7088
224
root 37.2581 17.5911 5.74059 130.579 -78.4718 -123.774
lowerback -1.03145 4.81559 7.6261
upperback -0.442808 6.21741 3.59697
thorax 0.530057 3.05689 -0.415284
lowerneck -19.996 -7.37656 -9.54991
upperneck 9.99979 -8.72236 8.73847
head 7.1159 -3.82997 3.32379
rclavicle -5.73991e-015 -7.95139e-016
rhumerus 1.16747 18.344 -78.7097
rradius 79.3675
rwrist -10.8839
rhand -12.2049 -10.4129
rfingers 7.12502
rthumb 13.8596 -39.9312
lclavicle -5.73991e-015 -7.95139e-016
lhumerus -73.7373 -12.6797 88.3958
lradius 66.6308
lwrist 6.99036
lhand -8.3897 4.93766
lfingers 7.12502
lthumb 17.5338 34.167
rfemur 5.93519 4.47758 33.916
rtibia 17.742
rfoot -14.4436 -6.62887
rtoes -4.02073
lfemur -70.3292 10.3981 -12.2972
ltibia 79.3859
lfoot 188.635 -181.349
ltoes -4.68675
